<svg fill="#FFFFFF" xmlns="http://www.w3.org/2000/svg" viewBox="0 0 48 48" width="48px" height="48px">
  <path d="M24 4C12.972 4 4 12.972 4 24c0 11.028 8.972 20 20 20 11.028 0 20-8.972 20-20C44 12.972 35.028 4 24 4zm0 3c9.225 0 16 6.775 16 16 0 7.2-4.084 13.535-9.822 15.866-.18.079-.357.156-.543.226a4.5 4.5 0 0 1-4.772 0c-.183-.069-.36-.147-.541-.226C12.084 36.535 8 30.2 8 24c0-9.225 6.775-16 16-16zm0 5a11 11 0 1 0 11 11 11 11 0 0 0-11-11zm0 2a9 9 0 1 1-9 9 9 9 0 0 1 9-9zm6 0a2 2 0 1 0 2 2 2 2 0 0 0-2-2z"/>
</svg>
